<svg width="248" height="168" viewBox="0 0 248 168" fill="none" xmlns="http://www.w3.org/2000/svg">
<path d="M247.798 145.281H0V145.405H247.798V145.281Z" fill="#777E92"/>
<path d="M222.969 153.258H215.584V153.382H222.969V153.258Z" fill="#777E92"/>
<path d="M164.152 154.603H159.844V154.727H164.152V154.603Z" fill="#777E92"/>
<path d="M213.492 148.656H196.547V148.78H213.492V148.656Z" fill="#777E92"/>
<path d="M54.3318 151.213H32.9258V151.337H54.3318V151.213Z" fill="#777E92"/>
<path d="M66.4641 151.213H58.7441V151.337H66.4641V151.213Z" fill="#777E92"/>
<path d="M126.255 149.55H79.8301V149.674H126.255V149.55Z" fill="#777E92"/>
<path d="M106.292 145.279H115.521L115.521 81.9073H106.292V145.279Z" fill="#515561"/>
<path d="M109.542 145.279H106.293V133.239H112.948L109.542 145.279Z" fill="#242730"/>
<path d="M203.888 145.279H213.117V81.9073H203.888V145.279Z" fill="#515561"/>
<path d="M106.294 141.992H206.723V81.9072L106.294 81.9072L106.294 141.992Z" fill="#242730"/>
<path d="M203.478 145.279H206.727V133.239H200.068L203.478 145.279Z" fill="#242730"/>
<path d="M173.613 86.8819V136.586H203.384V86.8819H173.613Z" fill="#515561"/>
<path d="M185.554 88.6299H191.444C193.937 88.6553 196.349 87.7487 198.208 86.0879H178.791C180.65 87.7484 183.062 88.655 185.554 88.6299V88.6299Z" fill="#242730"/>
<path d="M141.623 86.8819V136.586H171.394V86.8819H141.623Z" fill="#515561"/>
<path d="M153.264 88.6299H159.154C161.646 88.655 164.058 87.7484 165.917 86.0879H146.5C148.359 87.7487 150.771 88.6553 153.264 88.6299V88.6299Z" fill="#242730"/>
<path d="M109.633 86.8819V136.586H139.404V86.8819H109.633Z" fill="#515561"/>
<path d="M121.274 88.6299H127.164C129.656 88.6553 132.069 87.7487 133.928 86.0879H114.51C116.369 87.7487 118.781 88.6553 121.274 88.6299V88.6299Z" fill="#242730"/>
<path d="M34.6823 145.279H97.6523L97.6523 3.72729H34.6823L34.6823 145.279Z" fill="#242730"/>
<path d="M34.6813 145.279H96.3223L96.3223 3.72729H34.6813L34.6813 145.279Z" fill="#242730"/>
<path d="M92.5664 142.067L92.5664 6.93945L38.4374 6.93945L38.4374 142.067H92.5664Z" fill="#4A4F5E"/>
<path d="M87.2478 32.0705C87.2478 30.1326 86.8661 28.2136 86.1245 26.4232C85.3829 24.6328 84.2959 23.006 82.9256 21.6357C81.5553 20.2654 79.9285 19.1784 78.1381 18.4368C76.3477 17.6952 74.4287 17.3135 72.4908 17.3135H58.5148C54.601 17.3135 50.8475 18.8682 48.08 21.6357C45.3126 24.4032 43.7578 28.1567 43.7578 32.0705H87.2478Z" fill="#242730"/>
<path d="M87.248 133.669V101.387H43.758V133.669H87.248Z" fill="#242730"/>
<path d="M87.2475 41.1729H68.0645V97.2219H87.2475V41.1729Z" fill="#242730"/>
<path d="M62.9408 41.1729H43.7578V97.2219H62.9408V41.1729Z" fill="#242730"/>
<path d="M50.7147 68.9448H42.8577C42.5346 68.944 42.225 68.8153 41.9966 68.5869C41.7682 68.3585 41.6395 68.0489 41.6387 67.7258V67.7258C41.6397 67.4029 41.7685 67.0934 41.9969 66.865C42.2253 66.6367 42.5347 66.5079 42.8577 66.5068H50.7147C51.0377 66.5079 51.3471 66.6367 51.5755 66.865C51.8038 67.0934 51.9326 67.4029 51.9337 67.7258V67.7258C51.9329 68.0489 51.8042 68.3585 51.5758 68.5869C51.3473 68.8153 51.0377 68.944 50.7147 68.9448Z" fill="#4A4F5E"/>
<path d="M39.4141 142.067L39.4141 6.93945H38.4401L38.4401 142.067H39.4141Z" fill="#242730"/>
<path d="M137.483 66.3711L204.262 66.3711V3.72709L137.483 3.72709V66.3711Z" fill="#242730"/>
<path d="M135.801 66.3711L202.58 66.3711V3.72709L135.801 3.72709V66.3711Z" fill="#4A4F5E"/>
<path d="M131.901 69.9971L204.262 69.9971V66.3711L131.901 66.3711V69.9971Z" fill="#242730"/>
<path d="M130.007 69.9971L198.641 69.9971V66.3711L130.007 66.3711V69.9971Z" fill="#4A4F5E"/>
<path d="M170.873 63.1133V6.98633H167.506V63.1133H170.873Z" fill="#4A4F5E"/>
<path d="M140.094 63.1133V6.98633H138.821V63.1133H140.094Z" fill="#242730"/>
<path d="M172.145 63.1133V6.98633H170.872V63.1133H172.145Z" fill="#242730"/>
<path d="M146.459 68.0322C145.231 55.3072 144.376 34.6582 145.04 27.7522C145.052 27.6335 145.088 27.5186 145.148 27.4152C145.207 27.3117 145.287 27.2221 145.384 27.1522C145.512 27.0582 145.665 27.0022 145.823 26.9906C145.982 26.9789 146.141 27.0121 146.282 27.0863C146.422 27.1605 146.539 27.2728 146.619 27.4104C146.699 27.5479 146.739 27.7051 146.734 27.8642C146.617 31.2862 146.482 39.8392 147.211 54.5942C147.574 61.9392 148.097 66.9692 147.738 68.0302L146.459 68.0322Z" fill="#729466"/>
<path d="M141.881 38.7033C138.381 34.8203 131.242 32.0593 123.964 32.0733C121.107 32.0793 132.657 36.5903 137.464 41.5733C141.305 45.7113 144.467 50.4314 146.833 55.5583C145.905 47.9533 145.378 42.5843 141.881 38.7033Z" fill="#729466"/>
<path d="M148.811 39.8857C151.711 35.8417 158.418 32.7317 165.671 32.3797C168.518 32.2417 157.685 37.3167 153.642 42.5187C150.417 46.8666 147.966 51.7379 146.395 56.9187C146.183 49.3057 145.907 43.9307 148.811 39.8857Z" fill="#729466"/>
<path d="M141.725 24.5213C138.764 21.2333 132.716 18.8953 126.553 18.9073C124.134 18.9073 133.914 22.7333 137.981 26.9483C141.234 30.4521 143.912 34.4489 145.915 38.7903C145.133 32.3563 144.684 27.8093 141.725 24.5213Z" fill="#729466"/>
<path d="M147.594 29.3847C150.053 25.9597 155.73 23.3267 161.871 23.0287C164.282 22.9117 155.109 27.2087 151.685 31.6137C148.953 35.2972 146.877 39.4244 145.548 43.8137C145.37 37.3617 145.135 32.8077 147.594 29.3847Z" fill="#729466"/>
<path d="M146.953 81.9073C145.107 81.9073 143.332 81.2015 141.99 79.9346C140.648 78.6677 139.842 76.9356 139.736 75.0933L139.098 64.0303H154.808L154.17 75.0933C154.064 76.9356 153.257 78.6677 151.915 79.9346C150.574 81.2015 148.798 81.9073 146.953 81.9073Z" fill="#393C47"/>
<path d="M155.825 66.5453H138.084L137.576 61.9453H156.337L155.825 66.5453Z" fill="#393C47"/>
<path d="M123.9 167.664C176.969 167.664 219.991 165.152 219.991 162.052C219.991 158.953 176.969 156.44 123.9 156.44C70.83 156.44 27.8086 158.953 27.8086 162.052C27.8086 165.152 70.83 167.664 123.9 167.664Z" fill="#8990A4"/>
<path d="M125.838 156.689L121.7 157.155L120.174 147.771L124.312 147.305L125.838 156.689Z" fill="#FFC3BD"/>
<path d="M144.364 157.593H140.232L139.203 148.024H143.335L144.364 157.593Z" fill="#FFC3BD"/>
<path d="M139.892 157.112H144.929C145.011 157.112 145.091 157.14 145.155 157.192C145.219 157.243 145.263 157.314 145.281 157.394L146.097 161.067C146.116 161.157 146.115 161.249 146.093 161.338C146.072 161.427 146.03 161.51 145.972 161.581C145.914 161.651 145.84 161.708 145.757 161.746C145.674 161.785 145.584 161.804 145.492 161.802C143.871 161.774 142.692 161.679 140.648 161.679C139.392 161.679 135.604 161.809 133.87 161.809C132.17 161.809 131.909 160.094 132.619 159.939C135.803 159.239 138.202 158.282 139.219 157.366C139.404 157.201 139.644 157.111 139.892 157.112Z" fill="#263238"/>
<path d="M121.632 156.446L126.116 155.938C126.198 155.928 126.28 155.947 126.35 155.991C126.419 156.034 126.471 156.1 126.498 156.178L127.723 159.735C127.754 159.821 127.765 159.913 127.755 160.004C127.745 160.095 127.714 160.182 127.665 160.259C127.616 160.336 127.55 160.401 127.472 160.449C127.394 160.497 127.306 160.526 127.215 160.535C125.595 160.691 123.247 160.861 121.215 161.092C118.838 161.362 118.442 161.998 115.638 161.933C113.938 161.893 113.512 160.168 114.225 160.033C117.473 159.402 118.101 158.911 120.682 156.885C120.952 156.653 121.281 156.501 121.632 156.446V156.446Z" fill="#263238"/>
<path d="M125.283 36.1775C123.895 37.3235 122.529 38.3195 121.116 39.3395C119.703 40.3595 118.26 41.3065 116.775 42.2255C115.29 43.1445 113.766 44.0255 112.168 44.8255C110.534 45.6719 108.834 46.3816 107.083 46.9475C106.62 47.0955 106.169 47.2175 105.649 47.3475C105.141 47.4578 104.626 47.5402 104.109 47.5945C103.178 47.6945 102.302 47.7395 101.429 47.7795C99.6891 47.8595 97.9821 47.8575 96.2771 47.8455C92.8671 47.8045 89.4861 47.6405 86.0901 47.3405L86.0391 44.2405C89.3741 43.8115 92.7241 43.4405 96.0391 43.0675C97.6961 42.8875 99.3491 42.6855 100.964 42.4745C101.764 42.3655 102.564 42.2375 103.302 42.1005C103.619 42.0445 103.933 41.9707 104.242 41.8795C104.533 41.7795 104.89 41.6655 105.22 41.5325C106.637 40.9572 108.013 40.2842 109.337 39.5185C110.708 38.7315 112.08 37.8865 113.428 36.9885C114.776 36.0905 116.118 35.1605 117.448 34.2115C118.778 33.2625 120.107 32.2575 121.355 31.3115L125.283 36.1775Z" fill="#FFC3BD"/>
<path d="M129.32 32.6454C128.726 36.5514 120.502 42.5264 120.502 42.5264L114.602 35.2034C117.186 32.4451 119.927 29.8371 122.81 27.3924C125.465 25.2224 129.966 28.3954 129.32 32.6454Z" fill="#883F47"/>
<path d="M87.1772 44.5675L84.8312 42.8975L84.5742 48.1735C84.9288 48.1744 85.2783 48.0885 85.5921 47.9232C85.9058 47.758 86.1744 47.5184 86.3742 47.2255L87.1772 44.5675Z" fill="#FFC3BD"/>
<path d="M82.7105 41.3613L82.2305 46.5323L84.5745 48.1733L84.8315 42.8973L82.7105 41.3613Z" fill="#FFC3BD"/>
<path opacity="0.2" d="M120.176 147.774L120.962 152.611L125.101 152.145L124.315 147.308L120.176 147.774Z" fill="black"/>
<path opacity="0.2" d="M143.337 148.024H139.203L139.735 152.956H143.869L143.337 148.024Z" fill="black"/>
<path d="M143.396 27.5172C143.704 27.5862 143.995 27.716 144.252 27.8991C144.508 28.0822 144.726 28.3148 144.892 28.5833C145.057 28.8517 145.167 29.1506 145.216 29.4623C145.264 29.7739 145.25 30.0921 145.173 30.3981C144.277 34.1196 143.601 37.8909 143.149 41.6921C142.758 44.8921 142.524 47.9491 142.378 50.7201C142.035 57.2151 142.178 62.1661 141.984 63.8441C138.753 63.6201 126.577 62.7731 119.938 62.3091C117.697 44.7651 120.323 33.5691 121.798 29.0201C122.024 28.3113 122.447 27.6812 123.017 27.2032C123.587 26.7252 124.281 26.419 125.018 26.3201C125.864 26.2091 126.876 26.1021 127.944 26.0391C128.318 26.0151 128.697 26.0021 129.083 25.9941C132.217 26.0312 135.347 26.2489 138.456 26.6461C139.046 26.7161 139.642 26.8031 140.222 26.8961C141.381 27.0901 142.483 27.3132 143.396 27.5172Z" fill="#4E2D2E"/>
<path d="M138.264 16.033C137.464 19.007 136.486 24.491 138.456 26.651C133.346 30.088 130.084 34.927 129.143 33.876C128.65 33.326 128.436 26.961 129.084 25.997C132.503 25.429 132.59 22.928 132.168 20.544L138.264 16.033Z" fill="#FFC3BD"/>
<path d="M138.06 25.418C138.06 25.418 129.733 29.103 128.629 37.343C130.923 34.687 135.99 31.797 135.99 31.797L133.755 31.155C135.176 30.6155 136.648 30.2196 138.148 29.973C137.9 28.835 139.222 26.565 139.222 26.565L138.06 25.418Z" fill="#883F47"/>
<path d="M130.549 25.2852C130.549 25.2852 131.659 29.9912 128.632 37.3432C128.035 34.7771 127.216 32.2677 126.186 29.8432L128.225 30.3982C128.225 30.3982 128.125 29.4492 126.474 28.1872C127.162 27.1879 128.02 26.317 129.009 25.6142L130.549 25.2852Z" fill="#883F47"/>
<path opacity="0.2" d="M135.78 17.874L132.172 20.542C132.279 21.0972 132.337 21.6607 132.345 22.226C133.645 22.126 135.505 20.843 135.736 19.508C135.849 18.9705 135.864 18.4169 135.78 17.874V17.874Z" fill="black"/>
<path d="M127.683 7.42101C125.668 7.50801 124.556 10.982 126.601 13.843C128.646 16.704 130.398 7.30401 127.683 7.42101Z" fill="#263238"/>
<path d="M137.621 10.4779C137.86 14.5719 138.208 16.9549 136.406 19.2879C133.696 22.7969 128.456 21.5389 126.999 17.5989C125.688 14.0529 125.517 7.95388 129.299 5.85888C130.131 5.39247 131.069 5.14657 132.022 5.14454C132.976 5.14252 133.915 5.38443 134.748 5.84729C135.582 6.31015 136.284 6.97858 136.787 7.78906C137.29 8.59954 137.577 9.52513 137.621 10.4779V10.4779Z" fill="#FFC3BD"/>
<path d="M138.223 13.6241C137.128 12.9823 136.172 12.1292 135.41 11.1144C134.648 10.0996 134.096 8.94335 133.786 7.71305C132.586 7.99705 126.605 10.7491 124.766 7.71305C122.927 4.67705 125.241 2.89605 128.682 4.76505C127.16 2.07905 128.544 0.76505 133.326 0.64905C138.108 0.53305 137.465 3.30506 137.465 3.30506C137.465 3.30506 141.085 1.72905 142.365 4.50505C143.848 7.69505 141.112 13.1421 138.223 13.6241Z" fill="#263238"/>
<path d="M136.645 2.57224C136.689 2.57224 138.456 2.99724 140.492 0.948242C140.127 2.69624 136.965 3.86024 136.965 3.86024L136.645 2.57224Z" fill="#263238"/>
<path d="M139.022 8.56094C137.115 7.90194 134.806 10.7269 135.659 14.1379C136.512 17.5489 141.591 9.44894 139.022 8.56094Z" fill="#263238"/>
<path d="M140.101 13.8834C139.926 14.9001 139.356 15.8062 138.515 16.4034C137.394 17.1854 136.384 16.2914 136.315 14.9974C136.257 13.8334 136.769 12.0234 138.076 11.7564C138.363 11.7028 138.658 11.7217 138.936 11.8114C139.214 11.9012 139.465 12.0589 139.666 12.2702C139.867 12.4815 140.012 12.7398 140.088 13.0215C140.164 13.3033 140.169 13.5995 140.101 13.8834V13.8834Z" fill="#FFC3BD"/>
<path d="M126.151 108.863C127.144 96.7766 134.428 63.3196 134.428 63.3196L119.934 62.3086C119.934 62.3086 114.345 95.5196 113.917 108.124C113.471 121.229 118.742 150.355 118.742 150.355L125.693 149.564C125.693 149.564 125.154 120.999 126.151 108.863Z" fill="#883F47"/>
<path opacity="0.5" d="M126.151 108.863C127.144 96.7766 134.428 63.3196 134.428 63.3196L119.934 62.3086C119.934 62.3086 114.345 95.5196 113.917 108.124C113.471 121.229 118.742 150.355 118.742 150.355L125.693 149.564C125.693 149.564 125.154 120.999 126.151 108.863Z" fill="white"/>
<path opacity="0.2" d="M128.969 74.6504C126.047 78.3864 125.995 91.5074 127.125 101.201C128.202 94.2084 129.899 85.3274 131.386 77.9244L128.969 74.6504Z" fill="black"/>
<path d="M127.756 62.8545C127.756 62.8545 129.32 98.2295 131.065 110.209C132.975 123.328 137.826 152.001 137.826 152.001H145.394C145.394 152.001 144.149 124.995 143.15 112.106C142.013 97.4255 141.982 63.8465 141.982 63.8465L127.756 62.8545Z" fill="#883F47"/>
<path opacity="0.5" d="M127.756 62.8545C127.756 62.8545 129.32 98.2295 131.065 110.209C132.975 123.328 137.826 152.001 137.826 152.001H145.394C145.394 152.001 144.149 124.995 143.15 112.106C142.013 97.4255 141.982 63.8465 141.982 63.8465L127.756 62.8545Z" fill="white"/>
<path d="M136.917 152.162H145.828V149.5L135.867 149.327L136.917 152.162Z" fill="#883F47"/>
<path d="M118.439 151.138L126.723 150.199L126.423 147.522L117.146 148.431L118.439 151.138Z" fill="#883F47"/>
<path d="M131.594 12.3547C131.634 12.6857 131.494 12.9747 131.274 13.0007C131.054 13.0267 130.85 12.7797 130.811 12.4487C130.772 12.1177 130.911 11.8287 131.131 11.8027C131.351 11.7767 131.555 12.0237 131.594 12.3547Z" fill="#263238"/>
<path d="M127.853 12.8039C127.893 13.1349 127.753 13.4238 127.533 13.4498C127.313 13.4758 127.109 13.2289 127.069 12.8979C127.029 12.5669 127.169 12.2779 127.389 12.2519C127.609 12.2259 127.813 12.4769 127.853 12.8039Z" fill="#263238"/>
<path d="M129.062 12.8262C128.789 13.8849 128.372 14.9011 127.822 15.8462C128.068 15.9806 128.339 16.0598 128.618 16.0783C128.898 16.0968 129.177 16.0541 129.438 15.9532L129.062 12.8262Z" fill="#ED847E"/>
<path d="M132.609 11.0058C132.575 11.0163 132.538 11.0171 132.502 11.0081C132.467 10.9991 132.435 10.9807 132.409 10.9548C132.244 10.7729 132.038 10.6328 131.808 10.5459C131.578 10.459 131.331 10.4278 131.086 10.4548C131.036 10.4634 130.983 10.452 130.941 10.4229C130.898 10.3938 130.868 10.3493 130.857 10.2988C130.852 10.2735 130.852 10.2474 130.857 10.222C130.862 10.1967 130.872 10.1726 130.887 10.1513C130.902 10.1299 130.92 10.1117 130.942 10.0977C130.964 10.0837 130.988 10.0742 131.013 10.0698C131.322 10.0298 131.635 10.0646 131.928 10.1711C132.22 10.2776 132.482 10.4527 132.692 10.6818C132.728 10.719 132.748 10.7687 132.748 10.8203C132.748 10.8719 132.728 10.9216 132.692 10.9588C132.669 10.9812 132.641 10.9973 132.609 11.0058V11.0058Z" fill="#263238"/>
<path d="M131.174 17.2732C131.646 17.1739 132.087 16.9625 132.46 16.6569C132.833 16.3512 133.127 15.9603 133.317 15.5172C133.326 15.4906 133.324 15.4615 133.312 15.4362C133.3 15.4109 133.278 15.3915 133.252 15.3822C133.225 15.3729 133.196 15.3745 133.171 15.3867C133.145 15.3989 133.126 15.4206 133.117 15.4472C132.935 15.8548 132.659 16.214 132.313 16.4957C131.967 16.7775 131.559 16.9739 131.123 17.0692C131.109 17.0723 131.096 17.078 131.085 17.086C131.074 17.094 131.064 17.1041 131.057 17.1158C131.05 17.1275 131.045 17.1405 131.042 17.1541C131.04 17.1678 131.041 17.1817 131.044 17.1952C131.047 17.2086 131.052 17.2213 131.06 17.2326C131.068 17.2439 131.079 17.2534 131.09 17.2608C131.102 17.2681 131.115 17.2731 131.129 17.2754C131.142 17.2777 131.156 17.2773 131.17 17.2742L131.174 17.2732Z" fill="#263238"/>
<path d="M126.095 11.7103C126.056 11.7234 126.014 11.7234 125.974 11.7103C125.926 11.6924 125.886 11.6565 125.864 11.6101C125.841 11.5637 125.838 11.5104 125.853 11.4613C125.947 11.1647 126.111 10.895 126.331 10.6753C126.552 10.4556 126.822 10.2923 127.118 10.1993C127.169 10.1879 127.221 10.1963 127.265 10.2228C127.31 10.2492 127.342 10.2917 127.355 10.3413C127.367 10.3913 127.359 10.4438 127.332 10.488C127.306 10.5321 127.264 10.5644 127.214 10.5783V10.5783C126.981 10.6561 126.769 10.7883 126.597 10.9639C126.425 11.1395 126.297 11.3535 126.223 11.5883C126.213 11.6171 126.196 11.643 126.174 11.6642C126.151 11.6853 126.125 11.7011 126.095 11.7103Z" fill="#263238"/>
<path d="M138.532 157.834C138.249 157.856 137.967 157.782 137.732 157.623C137.658 157.559 137.602 157.479 137.567 157.389C137.532 157.299 137.52 157.202 137.532 157.106C137.531 157.048 137.547 156.992 137.577 156.944C137.606 156.895 137.649 156.855 137.7 156.829C138.159 156.593 139.49 157.413 139.64 157.507C139.656 157.517 139.669 157.532 139.677 157.55C139.685 157.568 139.688 157.587 139.685 157.607C139.681 157.626 139.673 157.643 139.66 157.658C139.646 157.672 139.629 157.682 139.611 157.687C139.258 157.776 138.896 157.825 138.532 157.834V157.834ZM137.918 156.979C137.874 156.977 137.831 156.985 137.791 157.003C137.77 157.014 137.754 157.031 137.743 157.051C137.732 157.071 137.727 157.095 137.729 157.118C137.72 157.183 137.727 157.25 137.75 157.312C137.774 157.374 137.812 157.429 137.862 157.473C138.323 157.683 138.848 157.71 139.329 157.547C138.898 157.267 138.417 157.074 137.913 156.979H137.918Z" fill="#883F47"/>
<path d="M139.584 157.689C139.567 157.689 139.551 157.685 139.537 157.677C139.11 157.445 138.283 156.539 138.37 156.077C138.384 156.005 138.423 155.94 138.479 155.893C138.536 155.847 138.607 155.821 138.681 155.82C138.755 155.811 138.831 155.818 138.902 155.84C138.974 155.861 139.041 155.898 139.098 155.946C139.578 156.339 139.677 157.531 139.68 157.581C139.681 157.599 139.677 157.616 139.67 157.632C139.662 157.648 139.65 157.662 139.636 157.671C139.62 157.682 139.602 157.688 139.584 157.689ZM138.75 156.014H138.705C138.578 156.03 138.567 156.088 138.562 156.114C138.51 156.386 139.037 157.07 139.462 157.393C139.434 156.921 139.263 156.468 138.974 156.093C138.911 156.041 138.831 156.013 138.75 156.014V156.014Z" fill="#883F47"/>
<path d="M121.295 157.057L121.279 157.064C120.632 157.271 119.474 157.564 118.979 157.218C118.906 157.167 118.846 157.1 118.805 157.021C118.764 156.942 118.743 156.854 118.743 156.766C118.739 156.712 118.749 156.658 118.772 156.61C118.795 156.561 118.83 156.52 118.874 156.489C119.339 156.162 121.086 156.805 121.284 156.88C121.301 156.887 121.316 156.899 121.326 156.914C121.337 156.929 121.343 156.947 121.344 156.965C121.345 156.984 121.341 157.002 121.333 157.018C121.324 157.035 121.311 157.048 121.295 157.058V157.057ZM119.012 156.633L118.989 156.647C118.971 156.659 118.957 156.675 118.948 156.695C118.939 156.715 118.936 156.736 118.939 156.758C118.938 156.816 118.951 156.874 118.977 156.927C119.004 156.979 119.043 157.024 119.091 157.058C119.699 157.247 120.355 157.212 120.939 156.958C120.334 156.689 119.671 156.577 119.011 156.633H119.012Z" fill="#883F47"/>
<path d="M121.297 157.057C121.273 157.069 121.246 157.071 121.221 157.063C120.701 156.897 119.621 156.12 119.641 155.648C119.646 155.537 119.709 155.392 119.973 155.335C120.068 155.313 120.167 155.312 120.263 155.33C120.359 155.348 120.45 155.386 120.531 155.441C120.955 155.846 121.24 156.374 121.347 156.951C121.35 156.967 121.349 156.985 121.344 157.001C121.339 157.017 121.329 157.032 121.317 157.044C121.311 157.049 121.304 157.053 121.297 157.057V157.057ZM119.906 155.567C119.839 155.603 119.837 155.645 119.836 155.661C119.822 155.945 120.568 156.567 121.109 156.813C121.009 156.352 120.77 155.933 120.424 155.613C120.365 155.572 120.298 155.544 120.227 155.53C120.157 155.516 120.084 155.518 120.014 155.534C119.977 155.54 119.94 155.551 119.906 155.567Z" fill="#883F47"/>
<path d="M146.882 33.4776C146.777 35.0916 146.587 36.5946 146.39 38.1466C146.193 39.6986 145.928 41.2196 145.637 42.7546C145.061 45.8898 144.211 48.9683 143.096 51.9546L142.605 53.1116L142.481 53.4006L142.45 53.4726L142.399 53.5826L142.255 53.8676C142.065 54.2139 141.836 54.5379 141.574 54.8336C141.143 55.3187 140.639 55.7337 140.08 56.0636C139.628 56.333 139.153 56.5635 138.661 56.7526C137.023 57.3434 135.311 57.7009 133.573 57.8146C130.419 58.0503 127.247 57.9319 124.119 57.4616L124.232 54.3616L126.418 54.1146C127.151 54.0276 127.88 53.9146 128.605 53.8146C130.052 53.6016 131.484 53.3636 132.849 53.0466C134.112 52.7896 135.339 52.3827 136.505 51.8346C136.82 51.7025 137.095 51.4922 137.305 51.2236C137.318 51.1526 137.16 51.4636 137.346 50.9666L137.673 50.0106C138.474 47.27 139.087 44.4778 139.507 41.6536C139.742 40.2156 139.943 38.7646 140.137 37.3096C140.331 35.8546 140.491 34.3696 140.644 32.9746L146.882 33.4776Z" fill="#FFC3BD"/>
<path d="M147.243 30.4813C149.266 33.8743 147.543 44.5383 147.543 44.5383L136.943 42.5793C136.943 42.5793 136.369 36.4793 138.387 31.7853C140.578 26.6763 144.792 26.3703 147.243 30.4813Z" fill="#883F47"/>
<path d="M121.264 63.9523L115.639 37.7883C115.369 36.671 114.743 35.6718 113.856 34.9413C112.968 34.2108 111.867 33.7885 110.719 33.7383H89.166C90.3145 33.7883 91.4156 34.2104 92.3033 34.941C93.1909 35.6715 93.817 36.6708 94.087 37.7883L99.712 63.9523C99.982 65.0696 100.608 66.0688 101.495 66.7993C102.383 67.5298 103.484 67.952 104.632 68.0023H126.184C125.036 67.952 123.935 67.5298 123.047 66.7993C122.16 66.0688 121.534 65.0696 121.264 63.9523V63.9523Z" fill="#263238"/>
<path opacity="0.7" d="M121.264 63.9523L115.639 37.7883C115.369 36.671 114.743 35.6718 113.856 34.9413C112.968 34.2108 111.867 33.7885 110.719 33.7383H89.166C90.3145 33.7883 91.4156 34.2104 92.3033 34.941C93.1909 35.6715 93.817 36.6708 94.087 37.7883L99.712 63.9523C99.982 65.0696 100.608 66.0688 101.495 66.7993C102.383 67.5298 103.484 67.952 104.632 68.0023H126.184C125.036 67.952 123.935 67.5298 123.047 66.7993C122.16 66.0688 121.534 65.0696 121.264 63.9523V63.9523Z" fill="#883F47"/>
<path d="M89.1653 33.7383H110.717C109.614 33.7589 108.556 34.1819 107.742 34.9277C106.929 35.6735 106.416 36.6908 106.299 37.7883L100.708 98.5883C100.592 99.6857 100.079 100.703 99.265 101.449C98.4515 102.194 97.3937 102.617 96.2903 102.638H82.8383C82.3201 102.648 81.8059 102.547 81.33 102.341C80.8541 102.136 80.4276 101.832 80.079 101.448C79.7303 101.065 79.4677 100.611 79.3086 100.118C79.1494 99.6247 79.0975 99.1032 79.1563 98.5883L84.7483 37.7883C84.8646 36.6909 85.3776 35.6738 86.191 34.9281C87.0043 34.1823 88.062 33.7592 89.1653 33.7383Z" fill="#883F47"/>
<path d="M92.6088 98.5869C92.55 99.1018 92.6019 99.6234 92.7611 100.117C92.9202 100.61 93.1829 101.063 93.5315 101.447C93.8801 101.83 94.3066 102.135 94.7825 102.34C95.2584 102.545 95.7726 102.647 96.2908 102.637H74.7388C74.2206 102.647 73.7063 102.546 73.2303 102.34C72.7544 102.135 72.3278 101.831 71.9791 101.447C71.6304 101.064 71.3678 100.61 71.2087 100.117C71.0497 99.6234 70.9979 99.1019 71.0568 98.5869H92.6088Z" fill="#263238"/>
<path opacity="0.7" d="M92.6088 98.5869C92.55 99.1018 92.6019 99.6234 92.7611 100.117C92.9202 100.61 93.1829 101.063 93.5315 101.447C93.8801 101.83 94.3066 102.135 94.7825 102.34C95.2584 102.545 95.7726 102.647 96.2908 102.637H74.7388C74.2206 102.647 73.7063 102.546 73.2303 102.34C72.7544 102.135 72.3278 101.831 71.9791 101.447C71.6304 101.064 71.3678 100.61 71.2087 100.117C71.0497 99.6234 70.9979 99.1019 71.0568 98.5869H92.6088Z" fill="#883F47"/>
<g opacity="0.5">
<path opacity="0.5" d="M102.565 40.5502H87.9807C87.8681 40.5518 87.7564 40.5293 87.6531 40.4844C87.5499 40.4395 87.4573 40.3731 87.3817 40.2897C87.306 40.2063 87.2489 40.1077 87.2143 40.0006C87.1796 39.8934 87.1682 39.7801 87.1807 39.6682V39.6682C87.2066 39.4295 87.3185 39.2083 87.4955 39.046C87.6725 38.8837 87.9026 38.7914 88.1427 38.7862H102.725C102.837 38.7847 102.949 38.8071 103.052 38.852C103.155 38.8969 103.248 38.9633 103.324 39.0467C103.399 39.1301 103.456 39.2287 103.491 39.3358C103.526 39.443 103.537 39.5563 103.525 39.6682V39.6682C103.499 39.9066 103.387 40.1275 103.211 40.2898C103.034 40.452 102.804 40.5446 102.565 40.5502V40.5502Z" fill="white"/>
<path opacity="0.5" d="M102.131 45.3217H87.5471C87.4345 45.3232 87.3228 45.3008 87.2196 45.2559C87.1163 45.211 87.0237 45.1446 86.9481 45.0612C86.8724 44.9778 86.8154 44.8792 86.7807 44.7721C86.7461 44.6649 86.7346 44.5516 86.7471 44.4397C86.773 44.2009 86.8849 43.9798 87.062 43.8175C87.239 43.6552 87.469 43.5628 87.7091 43.5577H102.293C102.406 43.5561 102.517 43.5786 102.621 43.6235C102.724 43.6684 102.816 43.7348 102.892 43.8182C102.968 43.9016 103.025 44.0001 103.059 44.1073C103.094 44.2145 103.106 44.3278 103.093 44.4397V44.4397C103.067 44.6785 102.956 44.8998 102.778 45.0621C102.601 45.2245 102.371 45.3167 102.131 45.3217V45.3217Z" fill="white"/>
<path opacity="0.5" d="M98.1225 50.0922H87.1135C87.0009 50.0937 86.8892 50.0713 86.786 50.0264C86.6827 49.9815 86.5901 49.9151 86.5145 49.8317C86.4388 49.7483 86.3818 49.6497 86.3471 49.5426C86.3125 49.4354 86.301 49.3221 86.3135 49.2102V49.2102C86.3394 48.9714 86.4513 48.7503 86.6284 48.588C86.8054 48.4257 87.0354 48.3334 87.2755 48.3282H98.2845C98.3971 48.3267 98.5088 48.3491 98.612 48.394C98.7153 48.4389 98.8079 48.5053 98.8835 48.5887C98.9592 48.6721 99.0162 48.7707 99.0509 48.8778C99.0855 48.985 99.097 49.0983 99.0845 49.2102V49.2102C99.0586 49.4489 98.9467 49.6701 98.7696 49.8324C98.5926 49.9947 98.3626 50.087 98.1225 50.0922V50.0922Z" fill="white"/>
<path opacity="0.5" d="M90.4129 54.8617H86.6799C86.5673 54.8633 86.4557 54.8409 86.3524 54.7959C86.2491 54.751 86.1566 54.6847 86.0809 54.6012C86.0052 54.5178 85.9482 54.4193 85.9135 54.3121C85.8789 54.205 85.8674 54.0917 85.8799 53.9797V53.9797C85.9056 53.7411 86.0173 53.5199 86.1942 53.3576C86.371 53.1953 86.6009 53.1029 86.8409 53.0977H90.5749C90.6875 53.0962 90.7992 53.1186 90.9024 53.1635C91.0057 53.2084 91.0983 53.2748 91.1739 53.3582C91.2496 53.4416 91.3066 53.5402 91.3413 53.6474C91.3759 53.7545 91.3874 53.8678 91.3749 53.9797V53.9797C91.349 54.2185 91.2371 54.4396 91.06 54.6019C90.883 54.7642 90.653 54.8566 90.4129 54.8617V54.8617Z" fill="white"/>
<path opacity="0.5" d="M100.828 59.6332H86.2404C86.1278 59.6348 86.0162 59.6123 85.9129 59.5674C85.8096 59.5225 85.7171 59.4561 85.6414 59.3727C85.5658 59.2893 85.5087 59.1908 85.4741 59.0836C85.4394 58.9764 85.428 58.8631 85.4404 58.7512V58.7512C85.4664 58.5125 85.5783 58.2913 85.7553 58.129C85.9323 57.9667 86.1623 57.8744 86.4025 57.8692H100.986C101.099 57.8677 101.211 57.8901 101.314 57.935C101.417 57.9799 101.51 58.0463 101.585 58.1297C101.661 58.2131 101.718 58.3117 101.753 58.4188C101.787 58.526 101.799 58.6393 101.786 58.7512V58.7512C101.761 58.9893 101.649 59.2099 101.473 59.3721C101.297 59.5343 101.068 59.6271 100.828 59.6332V59.6332Z" fill="white"/>
<path opacity="0.5" d="M94.6527 64.4037H85.8127C85.7001 64.4053 85.5884 64.3828 85.4852 64.3379C85.3819 64.293 85.2893 64.2267 85.2137 64.1432C85.138 64.0598 85.081 63.9613 85.0463 63.8541C85.0117 63.747 85.0002 63.6337 85.0127 63.5217V63.5217C85.0384 63.2831 85.1501 63.0619 85.327 62.8996C85.5038 62.7373 85.7337 62.6449 85.9737 62.6397H94.8137C94.9263 62.6382 95.038 62.6606 95.1412 62.7055C95.2445 62.7504 95.3371 62.8168 95.4127 62.9002C95.4884 62.9836 95.5454 63.0822 95.5801 63.1893C95.6147 63.2965 95.6262 63.4098 95.6137 63.5217V63.5217C95.5878 63.7603 95.476 63.9813 95.2992 64.1436C95.1224 64.3059 94.8926 64.3983 94.6527 64.4037V64.4037Z" fill="white"/>
<path opacity="0.5" d="M99.9612 69.1742H85.3772C85.2646 69.1758 85.1529 69.1534 85.0496 69.1084C84.9463 69.0635 84.8538 68.9972 84.7782 68.9137C84.7025 68.8303 84.6454 68.7318 84.6108 68.6246C84.5761 68.5175 84.5647 68.4042 84.5772 68.2922V68.2922C84.6031 68.0535 84.715 67.8323 84.892 67.67C85.069 67.5077 85.2991 67.4154 85.5392 67.4102H100.124C100.237 67.4087 100.348 67.4311 100.452 67.476C100.555 67.5209 100.648 67.5873 100.723 67.6707C100.799 67.7541 100.856 67.8527 100.891 67.9599C100.925 68.067 100.937 68.1803 100.924 68.2922V68.2922C100.898 68.5312 100.786 68.7524 100.609 68.9148C100.432 69.0771 100.201 69.1693 99.9612 69.1742V69.1742Z" fill="white"/>
<path opacity="0.5" d="M95.9526 73.9447H84.9436C84.831 73.9463 84.7193 73.9239 84.616 73.879C84.5128 73.834 84.4202 73.7677 84.3446 73.6843C84.2689 73.6008 84.2118 73.5023 84.1772 73.3951C84.1425 73.288 84.1311 73.1747 84.1436 73.0627V73.0627C84.1695 72.824 84.2814 72.6028 84.4584 72.4405C84.6355 72.2782 84.8655 72.1859 85.1056 72.1807H96.1146C96.2272 72.1792 96.3388 72.2016 96.4421 72.2465C96.5454 72.2914 96.6379 72.3578 96.7136 72.4412C96.7893 72.5247 96.8463 72.6232 96.881 72.7304C96.9156 72.8375 96.9271 72.9508 96.9146 73.0627V73.0627C96.8886 73.3015 96.7767 73.5227 96.5997 73.685C96.4227 73.8472 96.1927 73.9396 95.9526 73.9447V73.9447Z" fill="white"/>
<path opacity="0.5" d="M88.244 78.7152H84.508C84.3954 78.7168 84.2838 78.6944 84.1805 78.6495C84.0772 78.6045 83.9847 78.5382 83.909 78.4548C83.8334 78.3713 83.7763 78.2728 83.7417 78.1656C83.707 78.0585 83.6955 77.9452 83.708 77.8333V77.8333C83.734 77.5945 83.8459 77.3733 84.0229 77.211C84.1999 77.0487 84.4299 76.9564 84.67 76.9512H88.408C88.5206 76.9497 88.6323 76.9721 88.7356 77.017C88.8388 77.062 88.9314 77.1283 89.007 77.2117C89.0827 77.2951 89.1398 77.3937 89.1744 77.5009C89.2091 77.608 89.2205 77.7213 89.208 77.8333C89.182 78.0723 89.0699 78.2938 88.8924 78.4561C88.715 78.6184 88.4845 78.7106 88.244 78.7152V78.7152Z" fill="white"/>
<path opacity="0.5" d="M98.6584 83.4867H84.0744C83.9618 83.4883 83.8502 83.4659 83.7469 83.4209C83.6436 83.376 83.5511 83.3097 83.4754 83.2262C83.3998 83.1428 83.3427 83.0443 83.3081 82.9371C83.2734 82.83 83.2619 82.7167 83.2744 82.6047V82.6047C83.3004 82.366 83.4123 82.1448 83.5893 81.9825C83.7663 81.8202 83.9963 81.7279 84.2364 81.7227H98.8204C98.933 81.7212 99.0447 81.7436 99.148 81.7885C99.2512 81.8334 99.3438 81.8998 99.4194 81.9832C99.4951 82.0666 99.5522 82.1652 99.5868 82.2724C99.6215 82.3795 99.6329 82.4928 99.6204 82.6047V82.6047C99.5945 82.8435 99.4826 83.0646 99.3056 83.2269C99.1286 83.3892 98.8985 83.4816 98.6584 83.4867V83.4867Z" fill="white"/>
<path opacity="0.5" d="M92.4809 88.2572H83.6408C83.5282 88.2588 83.4166 88.2364 83.3133 88.1915C83.21 88.1465 83.1175 88.0802 83.0418 87.9967C82.9662 87.9133 82.9091 87.8148 82.8745 87.7076C82.8398 87.6005 82.8283 87.4872 82.8408 87.3753V87.3753C82.8666 87.1364 82.9784 86.9151 83.1555 86.7528C83.3325 86.5905 83.5627 86.4982 83.8028 86.4932H92.6418C92.7545 86.4917 92.8661 86.5141 92.9694 86.559C93.0727 86.6039 93.1652 86.6703 93.2409 86.7537C93.3165 86.8372 93.3736 86.9357 93.4082 87.0429C93.4429 87.15 93.4543 87.2633 93.4418 87.3753V87.3753C93.4159 87.6138 93.3042 87.8349 93.1274 87.9971C92.9506 88.1594 92.7208 88.2519 92.4809 88.2572V88.2572Z" fill="white"/>
<path opacity="0.5" d="M97.7912 93.0278H83.2072C83.0946 93.0293 82.983 93.0069 82.8797 92.962C82.7764 92.917 82.6839 92.8507 82.6082 92.7673C82.5326 92.6838 82.4755 92.5853 82.4409 92.4781C82.4062 92.371 82.3948 92.2577 82.4072 92.1457V92.1457C82.4332 91.907 82.5451 91.6858 82.7221 91.5235C82.8991 91.3612 83.1291 91.2689 83.3693 91.2637H97.9513C98.0639 91.2622 98.1755 91.2846 98.2788 91.3295C98.3821 91.3745 98.4746 91.4408 98.5503 91.5242C98.6259 91.6077 98.683 91.7062 98.7176 91.8134C98.7523 91.9205 98.7637 92.0338 98.7512 92.1457V92.1457C98.7254 92.3842 98.6137 92.6051 98.4371 92.7673C98.2605 92.9296 98.031 93.0221 97.7912 93.0278Z" fill="white"/>
</g>
<path d="M125.502 54.6992L122.336 51.9482L120.852 57.0122C120.852 57.0122 124.068 58.7562 125.182 57.1552L125.502 54.6992Z" fill="#FFC3BD"/>
<path d="M118.887 51.75L117.857 55.994L120.849 57.014L122.333 51.949L118.887 51.75Z" fill="#FFC3BD"/>
</svg>
